<svg xmlns="http://www.w3.org/2000/svg" width="800" height="500" viewBox="0 0 800 500">
  <rect width="800" height="500" fill="#111"/>
  <rect x="60" y="60" width="500" height="320" rx="8" fill="#1a1a1a" stroke="#333" stroke-width="1"/>
  <rect x="60" y="60" width="500" height="32" rx="8" fill="#222"/>
  <circle cx="82" cy="76" r="6" fill="#ff5f57"/>
  <circle cx="102" cy="76" r="6" fill="#febc2e"/>
  <circle cx="122" cy="76" r="6" fill="#28c840"/>
  <rect x="80" y="112" width="200" height="12" rx="3" fill="#2a2a2a"/>
  <rect x="80" y="134" width="320" height="8" rx="2" fill="#222"/>
  <rect x="80" y="152" width="280" height="8" rx="2" fill="#222"/>
  <rect x="80" y="180" width="460" height="120" rx="4" fill="#1e1e1e"/>
  <rect x="92" y="192" width="60" height="8" rx="2" fill="#333"/>
  <rect x="92" y="208" width="420" height="6" rx="1" fill="#2a2a2a"/>
  <rect x="92" y="220" width="380" height="6" rx="1" fill="#2a2a2a"/>
  <rect x="92" y="232" width="400" height="6" rx="1" fill="#2a2a2a"/>
  <rect x="92" y="244" width="300" height="6" rx="1" fill="#2a2a2a"/>
  <rect x="80" y="320" width="100" height="36" rx="4" fill="#4a4a4a"/>
  <rect x="196" y="320" width="80" height="36" rx="4" fill="#222" stroke="#333" stroke-width="1"/>
  <text x="600" y="200" font-family="Inter,sans-serif" font-size="64" font-weight="900" fill="#1e1e1e">Web</text>
  <text x="580" y="270" font-family="Inter,sans-serif" font-size="64" font-weight="900" fill="#222">Design</text>
</svg>
