<svg xmlns="http://www.w3.org/2000/svg" width="800" height="500" viewBox="0 0 800 500">
  <rect width="800" height="500" fill="#0d0d0d"/>
  <rect x="60" y="60" width="680" height="380" rx="8" fill="#141414"/>
  <rect x="60" y="60" width="180" height="380" rx="8" fill="#161616"/>
  <rect x="80" y="100" width="140" height="10" rx="2" fill="#222"/>
  <rect x="80" y="122" width="100" height="8" rx="2" fill="#1e1e1e"/>
  <rect x="80" y="150" width="140" height="8" rx="2" fill="#1e1e1e"/>
  <rect x="80" y="168" width="110" height="8" rx="2" fill="#1e1e1e"/>
  <rect x="80" y="186" width="130" height="8" rx="2" fill="#222"/>
  <rect x="80" y="204" width="90" height="8" rx="2" fill="#1e1e1e"/>
  <rect x="260" y="80" width="460" height="160" rx="4" fill="#1a1a1a"/>
  <rect x="276" y="96" width="180" height="12" rx="3" fill="#2a2a2a"/>
  <rect x="276" y="118" width="420" height="8" rx="2" fill="#222"/>
  <rect x="276" y="134" width="380" height="8" rx="2" fill="#222"/>
  <rect x="276" y="150" width="400" height="8" rx="2" fill="#222"/>
  <rect x="276" y="174" width="80" height="32" rx="4" fill="#3a3a3a"/>
  <rect x="260" y="260" width="220" height="160" rx="4" fill="#1a1a1a"/>
  <rect x="276" y="276" width="100" height="10" rx="2" fill="#2a2a2a"/>
  <rect x="276" y="296" width="180" height="8" rx="2" fill="#222"/>
  <rect x="276" y="312" width="160" height="8" rx="2" fill="#222"/>
  <rect x="500" y="260" width="220" height="160" rx="4" fill="#1a1a1a"/>
  <rect x="516" y="276" width="100" height="10" rx="2" fill="#2a2a2a"/>
  <rect x="516" y="296" width="180" height="8" rx="2" fill="#222"/>
  <rect x="516" y="312" width="140" height="8" rx="2" fill="#222"/>
</svg>
