<svg xmlns="http://www.w3.org/2000/svg" width="800" height="500" viewBox="0 0 800 500">
  <rect width="800" height="500" fill="#0f0f0f"/>
  <rect x="60" y="80" width="200" height="260" rx="8" fill="#1a1a1a"/>
  <rect x="70" y="90" width="180" height="140" rx="4" fill="#222"/>
  <rect x="70" y="240" width="120" height="10" rx="2" fill="#2a2a2a"/>
  <rect x="70" y="258" width="80" height="8" rx="2" fill="#333"/>
  <rect x="70" y="278" width="60" height="28" rx="4" fill="#4a4a4a"/>
  <rect x="280" y="80" width="200" height="260" rx="8" fill="#1a1a1a"/>
  <rect x="290" y="90" width="180" height="140" rx="4" fill="#252525"/>
  <rect x="290" y="240" width="120" height="10" rx="2" fill="#2a2a2a"/>
  <rect x="290" y="258" width="80" height="8" rx="2" fill="#333"/>
  <rect x="290" y="278" width="60" height="28" rx="4" fill="#4a4a4a"/>
  <rect x="500" y="80" width="200" height="260" rx="8" fill="#1a1a1a"/>
  <rect x="510" y="90" width="180" height="140" rx="4" fill="#1e1e1e"/>
  <rect x="510" y="240" width="120" height="10" rx="2" fill="#2a2a2a"/>
  <rect x="510" y="258" width="80" height="8" rx="2" fill="#333"/>
  <rect x="510" y="278" width="60" height="28" rx="4" fill="#4a4a4a"/>
  <text x="60" y="420" font-family="Inter,sans-serif" font-size="48" font-weight="900" fill="#1e1e1e">EC SHOP</text>
</svg>
