<svg xmlns="http://www.w3.org/2000/svg" width="800" height="500" viewBox="0 0 800 500">
  <rect width="800" height="500" fill="#111"/>
  <rect x="200" y="40" width="400" height="420" rx="8" fill="#1a1a1a" stroke="#2a2a2a" stroke-width="1"/>
  <rect x="200" y="40" width="400" height="180" rx="8" fill="#1e1e1e"/>
  <rect x="240" y="80" width="200" height="16" rx="4" fill="#333"/>
  <rect x="260" y="106" width="160" height="10" rx="3" fill="#2a2a2a"/>
  <rect x="260" y="124" width="180" height="10" rx="3" fill="#2a2a2a"/>
  <rect x="300" y="152" width="120" height="40" rx="4" fill="#4a4a4a"/>
  <rect x="220" y="240" width="360" height="1" fill="#222"/>
  <rect x="220" y="260" width="160" height="10" rx="2" fill="#2a2a2a"/>
  <rect x="220" y="278" width="320" height="8" rx="2" fill="#222"/>
  <rect x="220" y="294" width="300" height="8" rx="2" fill="#222"/>
  <rect x="220" y="320" width="80" height="8" rx="2" fill="#2a2a2a"/>
  <rect x="220" y="336" width="340" height="40" rx="4" fill="#333"/>
  <rect x="220" y="390" width="340" height="40" rx="6" fill="#4a4a4a"/>
  <text x="620" y="460" font-family="Inter,sans-serif" font-size="40" font-weight="900" fill="#1a1a1a">LP</text>
</svg>
